<?xml version="1.0" encoding="UTF-8"?>
<!DOCTYPE svg PUBLIC "-//W3C//DTD SVG 1.1//EN" "http://www.w3.org/Graphics/SVG/1.1/DTD/svg11.dtd">
<svg xmlns="http://www.w3.org/2000/svg" xmlns:xlink="http://www.w3.org/1999/xlink" width="1003px" height="433px" version="1.1"><defs/><g transform="translate(0.5,0.5)"><rect x="1" y="141" width="170" height="10" fill="#000000" stroke="#000000" pointer-events="none"/><rect x="153" y="107" width="100" height="10" fill="#000000" stroke="#000000" transform="rotate(-45,203,112)" pointer-events="none"/><rect x="235" y="72" width="416" height="10" fill="#000000" stroke="#000000" pointer-events="none"/><rect x="-113.5" y="256.5" width="239" height="10" fill="#000000" stroke="#000000" transform="rotate(90,6,261.5)" pointer-events="none"/><path d="M 1 431 L 1 381 L 951 381 L 951 431 Z M 11 391 L 11 421 L 941 421 L 941 391 Z" fill="#000000" stroke="#000000" stroke-miterlimit="10" pointer-events="none"/><path d="M 421 331 L 421 141 L 522 141 L 522 331 Z M 431 151 L 431 321 L 512 321 L 512 151 Z" fill="#000000" stroke="#000000" stroke-miterlimit="10" pointer-events="none"/><rect x="467" y="128" width="100" height="10" fill="#000000" stroke="#000000" transform="rotate(90,517,133)" pointer-events="none"/><rect x="472" y="91" width="40" height="5" fill="#ffffff" stroke="#000000" pointer-events="none"/><path d="M 472 96 C 472 118.09 489.91 136 512 136 L 512 96" fill="none" stroke="#000000" stroke-miterlimit="10" pointer-events="none"/><rect x="200" y="106" width="51" height="5" fill="#ffffff" stroke="#000000" transform="rotate(-135,225.5,132)" pointer-events="none"/><path d="M 200 111 C 200 139.17 222.83 162 251 162 L 251 111" fill="none" stroke="#000000" stroke-miterlimit="10" transform="rotate(-135,225.5,132)" pointer-events="none"/><rect x="431" y="229" width="80" height="10" fill="#000000" stroke="#000000" pointer-events="none"/><rect x="376" y="256" width="45" height="5" fill="#ffffff" stroke="#000000" pointer-events="none"/><path d="M 376 261 C 376 285.85 396.15 306 421 306 L 421 261" fill="none" stroke="#000000" stroke-miterlimit="10" pointer-events="none"/><rect x="376" y="159" width="45" height="5" fill="#ffffff" stroke="#000000" pointer-events="none"/><path d="M 376 164 C 376 188.85 396.15 209 421 209 L 421 164" fill="none" stroke="#000000" stroke-miterlimit="10" pointer-events="none"/><rect x="451.5" y="351" width="130" height="10" fill="#000000" stroke="#000000" transform="rotate(90,516.5,356)" pointer-events="none"/><rect x="606" y="37" width="80" height="10" fill="#000000" stroke="#000000" transform="rotate(90,646,42)" pointer-events="none"/><rect x="646" y="1.5" width="305" height="10" fill="#000000" stroke="#000000" pointer-events="none"/><rect x="755" y="188" width="382" height="10" fill="#000000" stroke="#000000" transform="rotate(90,946,193)" pointer-events="none"/><rect x="38" y="329" width="48" height="5" fill="#ffffff" stroke="#000000" transform="rotate(90,62,357)" pointer-events="none"/><path d="M 38 334 C 38 360.51 59.49 382 86 382 L 86 334" fill="none" stroke="#000000" stroke-miterlimit="10" transform="rotate(90,62,357)" pointer-events="none"/><rect x="569" y="329" width="48" height="5" fill="#ffffff" stroke="#000000" transform="rotate(90,593,357)" pointer-events="none"/><path d="M 569 334 C 569 360.51 590.49 382 617 382 L 617 334" fill="none" stroke="#000000" stroke-miterlimit="10" transform="rotate(90,593,357)" pointer-events="none"/><rect x="142" y="153" width="80" height="40" fill="none" stroke="none" pointer-events="none"/><g fill="#000000" font-family="Helvetica" text-anchor="middle" font-size="18px"><text x="182" y="169">MAIN</text><text x="182" y="191">ENTRANCE</text></g><rect x="31" y="300" width="80" height="40" fill="none" stroke="none" pointer-events="none"/><g fill="#000000" font-family="Helvetica" text-anchor="middle" font-size="18px"><text x="71" y="327">TERRACE</text></g><rect x="554" y="300" width="80" height="40" fill="none" stroke="none" pointer-events="none"/><g fill="#000000" font-family="Helvetica" text-anchor="middle" font-size="18px"><text x="594" y="327">TERRACE</text></g><rect x="431" y="166" width="80" height="40" fill="none" stroke="none" pointer-events="none"/><g fill="#000000" font-family="Helvetica" text-anchor="middle" font-size="18px"><text x="471" y="193">WC</text></g><rect x="431" y="256" width="80" height="40" fill="none" stroke="none" pointer-events="none"/><g fill="#000000" font-family="Helvetica" text-anchor="middle" font-size="18px"><text x="471" y="283">KITCHEN</text></g><rect x="23" y="381" width="288" height="10" fill="#ffffff" stroke="#000000" pointer-events="none"/><path d="M 23 386 L 311 386" fill="none" stroke="#000000" stroke-miterlimit="10" pointer-events="none"/><rect x="564" y="381" width="260" height="10" fill="#ffffff" stroke="#000000" pointer-events="none"/><path d="M 564 386 L 824 386" fill="none" stroke="#000000" stroke-miterlimit="10" pointer-events="none"/></g></svg>