<?xml version="1.0" encoding="UTF-8"?>
<!DOCTYPE svg PUBLIC "-//W3C//DTD SVG 1.1//EN" "http://www.w3.org/Graphics/SVG/1.1/DTD/svg11.dtd">
<svg xmlns="http://www.w3.org/2000/svg" xmlns:xlink="http://www.w3.org/1999/xlink" width="775px" height="1083px" version="1.1"><defs/><g transform="translate(0.5,0.5)"><path d="M 3 331 L 3 1 L 773 1 L 773 331 Z M 13 11 L 13 321 L 763 321 L 763 11 Z" fill="#000000" stroke="#000000" stroke-miterlimit="10" pointer-events="none"/><path d="M 3 541 L 3 321 L 143 321 L 143 541 Z M 13 331 L 13 531 L 133 531 L 133 331 Z" fill="#000000" stroke="#000000" stroke-miterlimit="10" pointer-events="none"/><path d="M 133 541 L 133 321 L 773 321 L 773 541 Z M 143 331 L 143 531 L 763 531 L 763 331 Z" fill="#000000" stroke="#000000" stroke-miterlimit="10" pointer-events="none"/><rect x="-242" y="786" width="500" height="10" fill="#000000" stroke="#000000" transform="rotate(90,8,791)" pointer-events="none"/><rect x="168" y="606" width="140" height="10" fill="#000000" stroke="#000000" transform="rotate(90,238,611)" pointer-events="none"/><rect x="233" y="671" width="440" height="10" fill="#000000" stroke="#000000" pointer-events="none"/><rect x="563" y="821" width="410" height="10" fill="#000000" stroke="#000000" transform="rotate(90,768,826)" pointer-events="none"/><rect x="3" y="1031" width="770" height="10" fill="#000000" stroke="#000000" pointer-events="none"/><rect x="673" y="621" width="100" height="10" fill="#000000" stroke="#000000" pointer-events="none"/><rect x="638" y="646" width="60" height="10" fill="#000000" stroke="#000000" transform="rotate(90,668,651)" pointer-events="none"/><rect x="155" y="538" width="60" height="5" fill="#ffffff" stroke="#000000" transform="rotate(-90,185,570.5)" pointer-events="none"/><path d="M 155 543 C 155 576.14 181.86 603 215 603 L 215 543" fill="none" stroke="#000000" stroke-miterlimit="10" transform="rotate(-90,185,570.5)" pointer-events="none"/><rect x="12" y="423" width="120" height="10" fill="#000000" stroke="#000000" pointer-events="none"/><rect x="143" y="341" width="70" height="5" fill="#ffffff" stroke="#000000" pointer-events="none"/><path d="M 213 346 C 213 384.66 181.66 416 143 416 L 143 346" fill="none" stroke="#000000" stroke-miterlimit="10" pointer-events="none"/><rect x="143" y="443" width="70" height="5" fill="#ffffff" stroke="#000000" pointer-events="none"/><path d="M 213 448 C 213 486.66 181.66 518 143 518 L 143 448" fill="none" stroke="#000000" stroke-miterlimit="10" pointer-events="none"/><rect x="625" y="240" width="70" height="5" fill="#ffffff" stroke="#000000" transform="rotate(90,660,285.5)" pointer-events="none"/><path d="M 625 245 C 625 283.66 656.34 315 695 315 L 695 245" fill="none" stroke="#000000" stroke-miterlimit="10" transform="rotate(90,660,285.5)" pointer-events="none"/><rect x="693" y="215" width="30" height="30" fill="#ffffff" stroke="#000000" pointer-events="none"/><path d="M 693 215 L 723 245 M 723 215 L 693 245" fill="none" stroke="#000000" stroke-miterlimit="10" pointer-events="none"/><rect x="313" y="156" width="30" height="30" fill="#ffffff" stroke="#000000" pointer-events="none"/><path d="M 313 156 L 343 186 M 343 156 L 313 186" fill="none" stroke="#000000" stroke-miterlimit="10" pointer-events="none"/><rect x="690" y="470" width="60" height="5" fill="#ffffff" stroke="#000000" transform="rotate(90,720,501)" pointer-events="none"/><path d="M 690 475 C 690 508.14 716.86 535 750 535 L 750 475" fill="none" stroke="#000000" stroke-miterlimit="10" transform="rotate(90,720,501)" pointer-events="none"/><path d="M 3 1081 L 3 1031 L 773 1031 L 773 1081 Z M 13 1041 L 13 1071 L 763 1071 L 763 1041 Z" fill="#000000" stroke="#000000" stroke-miterlimit="10" pointer-events="none"/><rect x="48" y="978" width="60" height="5" fill="#ffffff" stroke="#000000" transform="rotate(90,78,1000.5)" pointer-events="none"/><path d="M 48 983 C 48 1016.14 74.86 1043 108 1043 L 108 983" fill="none" stroke="#000000" stroke-miterlimit="10" transform="rotate(90,78,1000.5)" pointer-events="none"/><rect x="33" y="456" width="80" height="40" fill="none" stroke="none" pointer-events="none"/><g fill="#000000" font-family="Helvetica" text-anchor="middle" font-size="24px"><text x="73" y="486">WC</text></g><rect x="33" y="354" width="80" height="40" fill="none" stroke="none" pointer-events="none"/><g fill="#000000" font-family="Helvetica" text-anchor="middle" font-size="24px"><text x="73" y="384">KITCHEN</text></g><rect x="643" y="433" width="80" height="40" fill="none" stroke="none" pointer-events="none"/><g fill="#000000" font-family="Helvetica" text-anchor="middle" font-size="18px"><text x="683" y="449">MAIN</text><text x="683" y="471">ENTRANCE</text></g><rect x="29" y="938" width="80" height="40" fill="none" stroke="none" pointer-events="none"/><g fill="#000000" font-family="Helvetica" text-anchor="middle" font-size="18px"><text x="69" y="965">TERRACE</text></g><rect x="-75" y="188" width="166" height="10" fill="#ffffff" stroke="#000000" transform="rotate(90,8,193)" pointer-events="none"/><path d="M -75 193 L 91 193" fill="none" stroke="#000000" stroke-miterlimit="10" transform="rotate(90,8,193)" pointer-events="none"/><rect x="36" y="1031" width="317" height="10" fill="#ffffff" stroke="#000000" pointer-events="none"/><path d="M 36 1036 L 353 1036" fill="none" stroke="#000000" stroke-miterlimit="10" pointer-events="none"/><a xlink:href="mailto:borislav.dimitrov@mentormate.com"><rect x="178" y="41" width="90" height="50" fill="#ffffff" stroke="#000000"/><rect x="178" y="41" width="10" height="7" fill="none" stroke="#000000"/><rect x="178" y="84" width="10" height="7" fill="none" stroke="#000000"/><rect x="258" y="41" width="10" height="7" fill="none" stroke="#000000"/><rect x="258" y="84" width="10" height="7" fill="none" stroke="#000000"/><g fill="#0000EE" font-family="Helvetica" text-decoration="underline" text-anchor="middle" font-size="12px"><text x="222.75" y="62.75">BORISLAV</text><text x="222.75" y="76.75">DIMITROV</text></g></a><a xlink:href="mailto:anton.donchev@mentormate.com"><rect x="78" y="41" width="90" height="50" fill="#ffffff" stroke="#000000"/><rect x="78" y="41" width="10" height="7" fill="none" stroke="#000000"/><rect x="78" y="84" width="10" height="7" fill="none" stroke="#000000"/><rect x="158" y="41" width="10" height="7" fill="none" stroke="#000000"/><rect x="158" y="84" width="10" height="7" fill="none" stroke="#000000"/><g fill="#0000EE" font-family="Helvetica" text-decoration="underline" text-anchor="middle" font-size="12px"><text x="122.75" y="62.75">ANTON</text><text x="122.75" y="76.75">DONCHEV</text></g></a><a xlink:href="mailto:samuil.yanovski@mentormate.com"><rect x="170" y="215" width="90" height="50" fill="#ffffff" stroke="#000000" transform="rotate(-90,215,240)"/><rect x="170" y="215" width="10" height="7" fill="none" stroke="#000000" transform="rotate(-90,215,240)"/><rect x="170" y="258" width="10" height="7" fill="none" stroke="#000000" transform="rotate(-90,215,240)"/><rect x="250" y="215" width="10" height="7" fill="none" stroke="#000000" transform="rotate(-90,215,240)"/><rect x="250" y="258" width="10" height="7" fill="none" stroke="#000000" transform="rotate(-90,215,240)"/><g fill="#0000EE" font-family="Helvetica" text-decoration="underline" text-anchor="middle" font-size="12px" transform="rotate(-90,214.75,240.25)"><text x="214.75" y="237.25">SAMUIL</text><text x="214.75" y="251.25">YANOVSKI</text></g></a><a xlink:href="mailto:gyuray.myumyun@mentormate.com"><rect x="178" y="101" width="90" height="50" fill="#ffffff" stroke="#000000"/><rect x="178" y="101" width="10" height="7" fill="none" stroke="#000000"/><rect x="178" y="144" width="10" height="7" fill="none" stroke="#000000"/><rect x="258" y="101" width="10" height="7" fill="none" stroke="#000000"/><rect x="258" y="144" width="10" height="7" fill="none" stroke="#000000"/><g fill="#0000EE" font-family="Helvetica" text-decoration="underline" text-anchor="middle" font-size="12px"><text x="222.75" y="122.75">GYURAY</text><text x="222.75" y="136.75">MYUMYUN</text></g></a><a xlink:href="mailto:martin@mentormate.com"><rect x="105" y="215" width="90" height="50" fill="#ffffff" stroke="#000000" transform="rotate(-90,150,240)"/><rect x="105" y="215" width="10" height="7" fill="none" stroke="#000000" transform="rotate(-90,150,240)"/><rect x="105" y="258" width="10" height="7" fill="none" stroke="#000000" transform="rotate(-90,150,240)"/><rect x="185" y="215" width="10" height="7" fill="none" stroke="#000000" transform="rotate(-90,150,240)"/><rect x="185" y="258" width="10" height="7" fill="none" stroke="#000000" transform="rotate(-90,150,240)"/><g fill="#0000EE" font-family="Helvetica" text-decoration="underline" text-anchor="middle" font-size="12px" transform="rotate(-90,149.75,240.25)"><text x="149.75" y="237.25">MARTIN</text><text x="149.75" y="251.25">MIHALEV</text></g></a><a xlink:href="mailto:galina.keteva@mentormate.com"><rect x="408" y="721" width="90" height="50" fill="#ffffff" stroke="#000000" transform="rotate(-90,453,746)"/><rect x="408" y="721" width="10" height="7" fill="none" stroke="#000000" transform="rotate(-90,453,746)"/><rect x="408" y="764" width="10" height="7" fill="none" stroke="#000000" transform="rotate(-90,453,746)"/><rect x="488" y="721" width="10" height="7" fill="none" stroke="#000000" transform="rotate(-90,453,746)"/><rect x="488" y="764" width="10" height="7" fill="none" stroke="#000000" transform="rotate(-90,453,746)"/><g fill="#0000EE" font-family="Helvetica" text-decoration="underline" text-anchor="middle" font-size="12px" transform="rotate(-90,452.75,746.25)"><text x="452.75" y="743.25">GALINA</text><text x="452.75" y="757.25">KETEVA</text></g></a><rect x="24" y="553" width="90" height="50" fill="#ffffff" stroke="#000000"/><rect x="24" y="553" width="10" height="7" fill="none" stroke="#000000"/><rect x="24" y="596" width="10" height="7" fill="none" stroke="#000000"/><rect x="104" y="553" width="10" height="7" fill="none" stroke="#000000"/><rect x="104" y="596" width="10" height="7" fill="none" stroke="#000000"/><g fill="#000000" font-family="Helvetica" text-anchor="middle" font-size="12px"><text x="68.75" y="581.75">EMPTY</text></g><a xlink:href="mailto:aleksandar.spasov@mentormate.com"><rect x="24" y="701" width="90" height="50" fill="#ffffff" stroke="#000000"/><rect x="24" y="701" width="10" height="7" fill="none" stroke="#000000"/><rect x="24" y="744" width="10" height="7" fill="none" stroke="#000000"/><rect x="104" y="701" width="10" height="7" fill="none" stroke="#000000"/><rect x="104" y="744" width="10" height="7" fill="none" stroke="#000000"/><g fill="#0000EE" font-family="Helvetica" text-decoration="underline" text-anchor="middle" font-size="12px"><text x="68.75" y="722.75">ALEKSANDAR</text><text x="68.75" y="736.75">SPASOV</text></g></a><a xlink:href="mailto:rumyana.kusheva@mentormate.com"><rect x="408" y="821" width="90" height="50" fill="#ffffff" stroke="#000000" transform="rotate(-90,453,846)"/><rect x="408" y="821" width="10" height="7" fill="none" stroke="#000000" transform="rotate(-90,453,846)"/><rect x="408" y="864" width="10" height="7" fill="none" stroke="#000000" transform="rotate(-90,453,846)"/><rect x="488" y="821" width="10" height="7" fill="none" stroke="#000000" transform="rotate(-90,453,846)"/><rect x="488" y="864" width="10" height="7" fill="none" stroke="#000000" transform="rotate(-90,453,846)"/><g fill="#0000EE" font-family="Helvetica" text-decoration="underline" text-anchor="middle" font-size="12px" transform="rotate(-90,452.75,846.25)"><text x="452.75" y="843.25">RUMYANA</text><text x="452.75" y="857.25">KUSHEVA</text></g></a><a xlink:href="mailto:krasimir.triov@mentormate.com"><rect x="24" y="791" width="90" height="50" fill="#ffffff" stroke="#000000"/><rect x="24" y="791" width="10" height="7" fill="none" stroke="#000000"/><rect x="24" y="834" width="10" height="7" fill="none" stroke="#000000"/><rect x="104" y="791" width="10" height="7" fill="none" stroke="#000000"/><rect x="104" y="834" width="10" height="7" fill="none" stroke="#000000"/><g fill="#0000EE" font-family="Helvetica" text-decoration="underline" text-anchor="middle" font-size="12px"><text x="68.75" y="812.75">KRASIMIR</text><text x="68.75" y="826.75">TRIOV</text></g></a><rect x="24" y="646" width="90" height="50" fill="#ffffff" stroke="#000000"/><rect x="24" y="646" width="10" height="7" fill="none" stroke="#000000"/><rect x="24" y="689" width="10" height="7" fill="none" stroke="#000000"/><rect x="104" y="646" width="10" height="7" fill="none" stroke="#000000"/><rect x="104" y="689" width="10" height="7" fill="none" stroke="#000000"/><g fill="#000000" font-family="Helvetica" text-anchor="middle" font-size="12px"><text x="68.75" y="674.75">EMPTY</text></g><a xlink:href="mailto:anelia.terzieva@mentormate.com"><rect x="373" y="899" width="90" height="50" fill="#ffffff" stroke="#000000"/><rect x="373" y="899" width="10" height="7" fill="none" stroke="#000000"/><rect x="373" y="942" width="10" height="7" fill="none" stroke="#000000"/><rect x="453" y="899" width="10" height="7" fill="none" stroke="#000000"/><rect x="453" y="942" width="10" height="7" fill="none" stroke="#000000"/><g fill="#0000EE" font-family="Helvetica" text-decoration="underline" text-anchor="middle" font-size="12px"><text x="417.75" y="920.75">ANELIA</text><text x="417.75" y="934.75">TERZIEVA</text></g></a><rect x="343" y="821" width="90" height="50" fill="#ffffff" stroke="#000000" transform="rotate(90,388,846)"/><rect x="343" y="821" width="10" height="7" fill="none" stroke="#000000" transform="rotate(90,388,846)"/><rect x="343" y="864" width="10" height="7" fill="none" stroke="#000000" transform="rotate(90,388,846)"/><rect x="423" y="821" width="10" height="7" fill="none" stroke="#000000" transform="rotate(90,388,846)"/><rect x="423" y="864" width="10" height="7" fill="none" stroke="#000000" transform="rotate(90,388,846)"/><g fill="#000000" font-family="Helvetica" text-anchor="middle" font-size="12px" transform="rotate(-90,387.75,846.25)"><text x="387.75" y="850.25">EMPTY</text></g><a xlink:href="mailto:christo.djambov@mentormate.com"><rect x="343" y="721" width="90" height="50" fill="#ffffff" stroke="#000000" transform="rotate(-90,388,746)"/><rect x="343" y="721" width="10" height="7" fill="none" stroke="#000000" transform="rotate(-90,388,746)"/><rect x="343" y="764" width="10" height="7" fill="none" stroke="#000000" transform="rotate(-90,388,746)"/><rect x="423" y="721" width="10" height="7" fill="none" stroke="#000000" transform="rotate(-90,388,746)"/><rect x="423" y="764" width="10" height="7" fill="none" stroke="#000000" transform="rotate(-90,388,746)"/><g fill="#0000EE" font-family="Helvetica" text-decoration="underline" text-anchor="middle" font-size="12px" transform="rotate(-90,387.75,746.25)"><text x="387.75" y="743.25">CHRISTO</text><text x="387.75" y="757.25">DJAMBOV</text></g></a><rect x="23" y="849" width="90" height="50" fill="#ffffff" stroke="#000000"/><rect x="23" y="849" width="10" height="7" fill="none" stroke="#000000"/><rect x="23" y="892" width="10" height="7" fill="none" stroke="#000000"/><rect x="103" y="849" width="10" height="7" fill="none" stroke="#000000"/><rect x="103" y="892" width="10" height="7" fill="none" stroke="#000000"/><g fill="#000000" font-family="Helvetica" text-anchor="middle" font-size="12px"><text x="67.75" y="877.75">EMPTY</text></g></g></svg>