<?xml version="1.0" encoding="UTF-8"?>
<!DOCTYPE svg PUBLIC "-//W3C//DTD SVG 1.1//EN" "http://www.w3.org/Graphics/SVG/1.1/DTD/svg11.dtd">
<svg xmlns="http://www.w3.org/2000/svg" xmlns:xlink="http://www.w3.org/1999/xlink" width="1111px" height="1213px" version="1.1"><defs/><g transform="translate(0.5,0.5)"><rect x="562" y="1028" width="90" height="50" fill="#ffffff" stroke="#000000" pointer-events="none"/><rect x="562" y="1028" width="10" height="7" fill="none" stroke="#000000" pointer-events="none"/><rect x="562" y="1071" width="10" height="7" fill="none" stroke="#000000" pointer-events="none"/><rect x="642" y="1028" width="10" height="7" fill="none" stroke="#000000" pointer-events="none"/><rect x="642" y="1071" width="10" height="7" fill="none" stroke="#000000" pointer-events="none"/><rect x="915" y="505" width="90" height="50" fill="#ffffff" stroke="#000000" transform="rotate(180,960,530)" pointer-events="none"/><rect x="915" y="505" width="10" height="7" fill="none" stroke="#000000" transform="rotate(180,960,530)" pointer-events="none"/><rect x="915" y="548" width="10" height="7" fill="none" stroke="#000000" transform="rotate(180,960,530)" pointer-events="none"/><rect x="995" y="505" width="10" height="7" fill="none" stroke="#000000" transform="rotate(180,960,530)" pointer-events="none"/><rect x="995" y="548" width="10" height="7" fill="none" stroke="#000000" transform="rotate(180,960,530)" pointer-events="none"/><rect x="916" y="346" width="90" height="50" fill="#ffffff" stroke="#000000" transform="rotate(180,961,371)" pointer-events="none"/><rect x="916" y="346" width="10" height="7" fill="none" stroke="#000000" transform="rotate(180,961,371)" pointer-events="none"/><rect x="916" y="389" width="10" height="7" fill="none" stroke="#000000" transform="rotate(180,961,371)" pointer-events="none"/><rect x="996" y="346" width="10" height="7" fill="none" stroke="#000000" transform="rotate(180,961,371)" pointer-events="none"/><rect x="996" y="389" width="10" height="7" fill="none" stroke="#000000" transform="rotate(180,961,371)" pointer-events="none"/><rect x="390" y="781" width="90" height="50" fill="#ffffff" stroke="#000000" transform="rotate(90,435,806)" pointer-events="none"/><rect x="390" y="781" width="10" height="7" fill="none" stroke="#000000" transform="rotate(90,435,806)" pointer-events="none"/><rect x="390" y="824" width="10" height="7" fill="none" stroke="#000000" transform="rotate(90,435,806)" pointer-events="none"/><rect x="470" y="781" width="10" height="7" fill="none" stroke="#000000" transform="rotate(90,435,806)" pointer-events="none"/><rect x="470" y="824" width="10" height="7" fill="none" stroke="#000000" transform="rotate(90,435,806)" pointer-events="none"/><rect x="508" y="781" width="90" height="50" fill="#ffffff" stroke="#000000" transform="rotate(90,553,806)" pointer-events="none"/><rect x="508" y="781" width="10" height="7" fill="none" stroke="#000000" transform="rotate(90,553,806)" pointer-events="none"/><rect x="508" y="824" width="10" height="7" fill="none" stroke="#000000" transform="rotate(90,553,806)" pointer-events="none"/><rect x="588" y="781" width="10" height="7" fill="none" stroke="#000000" transform="rotate(90,553,806)" pointer-events="none"/><rect x="588" y="824" width="10" height="7" fill="none" stroke="#000000" transform="rotate(90,553,806)" pointer-events="none"/><rect x="915" y="560" width="90" height="50" fill="#ffffff" stroke="#000000" pointer-events="none"/><rect x="915" y="560" width="10" height="7" fill="none" stroke="#000000" pointer-events="none"/><rect x="915" y="603" width="10" height="7" fill="none" stroke="#000000" pointer-events="none"/><rect x="995" y="560" width="10" height="7" fill="none" stroke="#000000" pointer-events="none"/><rect x="995" y="603" width="10" height="7" fill="none" stroke="#000000" pointer-events="none"/><rect x="911" y="148" width="220" height="10" fill="#000000" stroke="#000000" transform="rotate(90,1021,153)" pointer-events="none"/><rect x="377" y="297" width="522" height="10" fill="#000000" stroke="#000000" transform="rotate(90,638,302)" pointer-events="none"/><rect x="562" y="973" width="90" height="50" fill="#ffffff" stroke="#000000" pointer-events="none"/><rect x="562" y="973" width="10" height="7" fill="none" stroke="#000000" pointer-events="none"/><rect x="562" y="1016" width="10" height="7" fill="none" stroke="#000000" pointer-events="none"/><rect x="642" y="973" width="10" height="7" fill="none" stroke="#000000" pointer-events="none"/><rect x="642" y="1016" width="10" height="7" fill="none" stroke="#000000" pointer-events="none"/><rect x="916" y="291" width="90" height="50" fill="#ffffff" stroke="#000000" pointer-events="none"/><rect x="916" y="291" width="10" height="7" fill="none" stroke="#000000" pointer-events="none"/><rect x="916" y="334" width="10" height="7" fill="none" stroke="#000000" pointer-events="none"/><rect x="996" y="291" width="10" height="7" fill="none" stroke="#000000" pointer-events="none"/><rect x="996" y="334" width="10" height="7" fill="none" stroke="#000000" pointer-events="none"/><rect x="840" y="320" width="90" height="50" fill="#ffffff" stroke="#000000" transform="rotate(90,885,345)" pointer-events="none"/><rect x="840" y="320" width="10" height="7" fill="none" stroke="#000000" transform="rotate(90,885,345)" pointer-events="none"/><rect x="840" y="363" width="10" height="7" fill="none" stroke="#000000" transform="rotate(90,885,345)" pointer-events="none"/><rect x="920" y="320" width="10" height="7" fill="none" stroke="#000000" transform="rotate(90,885,345)" pointer-events="none"/><rect x="920" y="363" width="10" height="7" fill="none" stroke="#000000" transform="rotate(90,885,345)" pointer-events="none"/><rect x="640" y="1008" width="90" height="50" fill="#ffffff" stroke="#000000" transform="rotate(-90,685,1033)" pointer-events="none"/><rect x="640" y="1008" width="10" height="7" fill="none" stroke="#000000" transform="rotate(-90,685,1033)" pointer-events="none"/><rect x="640" y="1051" width="10" height="7" fill="none" stroke="#000000" transform="rotate(-90,685,1033)" pointer-events="none"/><rect x="720" y="1008" width="10" height="7" fill="none" stroke="#000000" transform="rotate(-90,685,1033)" pointer-events="none"/><rect x="720" y="1051" width="10" height="7" fill="none" stroke="#000000" transform="rotate(-90,685,1033)" pointer-events="none"/><path d="M 659.5 984 L 659.5 957.31 L 718.57 957.31 L 718.57 984 Z M 718.57 984 L 718.57 957.31 L 659.5 957.31 L 666.94 950 L 719.1 950 L 726.01 950 L 726.01 976.15 Z" fill="#036897" stroke="#ffffff" stroke-width="2" stroke-linejoin="round" stroke-miterlimit="10" pointer-events="none"/><path d="M 718.57 957.31 L 726.01 950 M 718.57 976.69 L 659.5 976.69 M 726.01 969.35 L 718.57 976.69" fill="none" stroke="#ffffff" stroke-width="2" stroke-linejoin="round" stroke-miterlimit="10" pointer-events="none"/><path d="M 750.5 955.23 L 743.04 963.08 L 718.57 971.44 L 726.01 963.59 Z" fill="#036897" stroke="#ffffff" stroke-width="2" stroke-linejoin="round" stroke-miterlimit="10" pointer-events="none"/><g fill="#000000" font-family="Helvetica" text-anchor="middle" font-size="12px"><text x="704.75" y="942.5">PRINTER</text></g><rect x="220.5" y="382.5" width="59" height="5" fill="#ffffff" stroke="#000000" pointer-events="none"/><path d="M 279.5 387.5 C 279.5 420.08 253.08 446.5 220.5 446.5 L 220.5 387.5" fill="none" stroke="#000000" stroke-miterlimit="10" pointer-events="none"/><rect x="221.5" y="600.5" width="59" height="5" fill="#ffffff" stroke="#000000" transform="rotate(180,251,630.5)" pointer-events="none"/><path d="M 280.5 605.5 C 280.5 638.08 254.08 664.5 221.5 664.5 L 221.5 605.5" fill="none" stroke="#000000" stroke-miterlimit="10" transform="rotate(180,251,630.5)" pointer-events="none"/><rect x="139" y="679" width="66" height="5" fill="#ffffff" stroke="#000000" transform="rotate(90,172,717.5)" pointer-events="none"/><path d="M 205 684 C 205 720.45 175.45 750 139 750 L 139 684" fill="none" stroke="#000000" stroke-miterlimit="10" transform="rotate(90,172,717.5)" pointer-events="none"/><rect x="574" y="589" width="67" height="5" fill="#ffffff" stroke="#000000" transform="rotate(90,607.5,621)" pointer-events="none"/><path d="M 641 594 C 641 631 611 661 574 661 L 574 594" fill="none" stroke="#000000" stroke-miterlimit="10" transform="rotate(90,607.5,621)" pointer-events="none"/><rect x="729" y="45" width="96" height="5" fill="#ffffff" stroke="#000000" pointer-events="none"/><path d="M 825 50 C 825 103.02 782.02 146 729 146 L 729 50" fill="none" stroke="#000000" stroke-miterlimit="10" pointer-events="none"/><rect x="134" y="289" width="100" height="59" fill="none" stroke="none" pointer-events="none"/><g fill="#000000" font-family="Helvetica" text-anchor="middle" font-size="12px"><text x="184" y="322.5">WC</text></g><rect x="53" y="532" width="91" height="59" fill="none" stroke="none" pointer-events="none"/><g fill="#000000" font-family="Helvetica" text-anchor="middle" font-size="12px"><text x="98.5" y="558.5">Conference </text><text x="98.5" y="572.5">Room</text></g><a xlink:href="mailto:atanas.kolev@mentormate.com"><rect x="920" y="295" width="80" height="40" fill="none" stroke="none"/><g fill="#0000EE" font-family="Helvetica" text-decoration="underline" text-anchor="middle" font-size="12px"><text x="960" y="312">ATANAS</text><text x="960" y="326">KOLEV</text></g></a><a xlink:href="mailto:ivan.dzhunov@mentormate.com"><rect x="568" y="979" width="80" height="40" fill="none" stroke="none"/><g fill="#0000EE" font-family="Helvetica" text-decoration="underline" text-anchor="middle" font-size="12px"><text x="608" y="996">IVAN</text><text x="608" y="1010">DZHUNOV</text></g></a><a xlink:href="mailto:milen.lambev@mentormate.com"><rect x="645" y="1013" width="80" height="40" fill="none" stroke="none" transform="rotate(-90,685,1033)"/><g fill="#0000EE" font-family="Helvetica" text-decoration="underline" text-anchor="middle" font-size="12px" transform="rotate(-90,685,1033)"><text x="685" y="1030">MILEN</text><text x="685" y="1044">LAMBEV</text></g></a><a xlink:href="mailto:radoslav.glushkov@mentormate.com"><rect x="920" y="565" width="80" height="40" fill="none" stroke="none"/><g fill="#0000EE" font-family="Helvetica" text-decoration="underline" text-anchor="middle" font-size="12px"><text x="960" y="582">RADOSLAV</text><text x="960" y="596">GLUSHKOV</text></g></a><a xlink:href="mailto:tihomir.minchev@mentormate.com"><rect x="513" y="786" width="80" height="40" fill="none" stroke="none" transform="rotate(-90,553,806)"/><g fill="#0000EE" font-family="Helvetica" text-decoration="underline" text-anchor="middle" font-size="12px" transform="rotate(-90,553,806)"><text x="553" y="803">TIHOMIR</text><text x="553" y="817">MINCHEV</text></g></a><a xlink:href="mailto:doncho.popkrastev@mentormate.com"><rect x="395" y="786" width="80" height="40" fill="none" stroke="none" transform="rotate(180,435,806)"/><g fill="#0000EE" font-family="Helvetica" text-decoration="underline" text-anchor="middle" font-size="12px" transform="rotate(-90,435,806)"><text x="435" y="803">DONCHO</text><text x="435" y="817">POPKRASTEV</text></g></a><rect x="298" y="1028" width="90" height="50" fill="#ffffff" stroke="#000000"/><rect x="298" y="1028" width="10" height="7" fill="none" stroke="#000000"/><rect x="298" y="1071" width="10" height="7" fill="none" stroke="#000000"/><rect x="378" y="1028" width="10" height="7" fill="none" stroke="#000000"/><rect x="378" y="1071" width="10" height="7" fill="none" stroke="#000000"/><a xlink:href="mailto:christo.rusev@mentormate.com"><rect x="303" y="1033" width="80" height="40" fill="none" stroke="none"/><g fill="#0000EE" font-family="Helvetica" text-decoration="underline" text-anchor="middle" font-size="12px"><text x="343" y="1050">CHRISTO</text><text x="343" y="1064">RUSEV</text></g></a><rect x="374" y="483" width="80" height="40" fill="none" stroke="none"/><g fill="#000000" font-family="Helvetica" text-anchor="middle" font-size="12px"><text x="414" y="507">Launge</text></g><rect x="736" y="1" width="80" height="40" fill="none" stroke="none"/><g fill="#000000" font-family="Helvetica" text-anchor="middle" font-size="12px"><text x="776" y="18">MAIN</text><text x="776" y="32">ENTRANCE</text></g><rect x="258" y="782" width="90" height="50" fill="#ffffff" stroke="#000000" transform="rotate(-90,303,807)"/><rect x="258" y="782" width="10" height="7" fill="none" stroke="#000000" transform="rotate(-90,303,807)"/><rect x="258" y="825" width="10" height="7" fill="none" stroke="#000000" transform="rotate(-90,303,807)"/><rect x="338" y="782" width="10" height="7" fill="none" stroke="#000000" transform="rotate(-90,303,807)"/><rect x="338" y="825" width="10" height="7" fill="none" stroke="#000000" transform="rotate(-90,303,807)"/><a xlink:href="mailto:dimitar.raev@mentormate.com"><rect x="920" y="510" width="80" height="40" fill="none" stroke="none"/><g fill="#0000EE" font-family="Helvetica" text-decoration="underline" text-anchor="middle" font-size="12px"><text x="960" y="527">DIMITAR</text><text x="960" y="541">RAEV</text></g></a><a xlink:href="mailto:valentin.kolev@mentormate.com"><rect x="920" y="350" width="80" height="40" fill="none" stroke="none"/><g fill="#0000EE" font-family="Helvetica" text-decoration="underline" text-anchor="middle" font-size="12px"><text x="960" y="367">VALENTIN</text><text x="960" y="381">KOLEV</text></g></a><a xlink:href="mailto:vladimir.chetalbashev@mentormate.com"><rect x="263" y="788" width="80" height="40" fill="none" stroke="none" transform="rotate(-90,303,808)"/><g fill="#0000EE" font-family="Helvetica" text-decoration="underline" text-anchor="middle" font-size="10px" transform="rotate(-90,303,808)"><text x="303" y="805">VLADIMIR</text><text x="303" y="817">CHETALBASHEV</text></g></a><rect x="845" y="325" width="80" height="40" fill="none" stroke="none" transform="rotate(-90,885,345)"/><g fill="#000000" font-family="Helvetica" text-anchor="middle" font-size="12px" transform="rotate(-90,885,345)"><text x="885" y="342">GUEST</text><text x="885" y="356">MACHINE</text></g><rect x="395" y="1028" width="90" height="50" fill="#ffffff" stroke="#000000"/><rect x="395" y="1028" width="10" height="7" fill="none" stroke="#000000"/><rect x="395" y="1071" width="10" height="7" fill="none" stroke="#000000"/><rect x="475" y="1028" width="10" height="7" fill="none" stroke="#000000"/><rect x="475" y="1071" width="10" height="7" fill="none" stroke="#000000"/><rect x="396" y="973" width="90" height="50" fill="#ffffff" stroke="#000000"/><rect x="396" y="973" width="10" height="7" fill="none" stroke="#000000"/><rect x="396" y="1016" width="10" height="7" fill="none" stroke="#000000"/><rect x="476" y="973" width="10" height="7" fill="none" stroke="#000000"/><rect x="476" y="1016" width="10" height="7" fill="none" stroke="#000000"/><rect x="298" y="973" width="90" height="50" fill="#ffffff" stroke="#000000"/><rect x="298" y="973" width="10" height="7" fill="none" stroke="#000000"/><rect x="298" y="1016" width="10" height="7" fill="none" stroke="#000000"/><rect x="378" y="973" width="10" height="7" fill="none" stroke="#000000"/><rect x="378" y="1016" width="10" height="7" fill="none" stroke="#000000"/><a xlink:href="mailto:georgi.kolev@mentormate.com"><rect x="401" y="1034" width="80" height="40" fill="none" stroke="none"/><g fill="#0000EE" font-family="Helvetica" text-decoration="underline" text-anchor="middle" font-size="12px"><text x="441" y="1051">GEORGI</text><text x="441" y="1065">KOLEV</text></g></a><a xlink:href="mailto:georgi.getsov@mentormate.com"><rect x="410" y="978" width="60" height="40" fill="none" stroke="none"/><g fill="#0000EE" font-family="Helvetica" text-decoration="underline" text-anchor="middle" font-size="12px"><text x="440" y="995">GEORGI</text><text x="440" y="1009">GETSOV</text></g></a><a xlink:href="mailto:nikolay.arhangelov@mentormate.com"><rect x="567" y="1034" width="80" height="40" fill="none" stroke="none"/><g fill="#0000EE" font-family="Helvetica" text-decoration="underline" text-anchor="middle" font-size="12px"><text x="607" y="1051">NIKOLAY</text><text x="607" y="1065">ARHANGELOV</text></g></a><rect x="573" y="854" width="90" height="50" fill="#ffffff" stroke="#000000" transform="rotate(180,618,879)"/><rect x="573" y="854" width="10" height="7" fill="none" stroke="#000000" transform="rotate(180,618,879)"/><rect x="573" y="897" width="10" height="7" fill="none" stroke="#000000" transform="rotate(180,618,879)"/><rect x="653" y="854" width="10" height="7" fill="none" stroke="#000000" transform="rotate(180,618,879)"/><rect x="653" y="897" width="10" height="7" fill="none" stroke="#000000" transform="rotate(180,618,879)"/><a xlink:href="mailto:darinka.dyakova@mentormate.com"><rect x="578" y="860" width="80" height="40" fill="none" stroke="none"/><g fill="#0000EE" font-family="Helvetica" text-decoration="underline" text-anchor="middle" font-size="12px"><text x="618" y="877">DARINKA</text><text x="618" y="891">DYAKOVA</text></g></a><rect x="840" y="532" width="90" height="50" fill="#ffffff" stroke="#000000" transform="rotate(90,885,557)"/><rect x="840" y="532" width="10" height="7" fill="none" stroke="#000000" transform="rotate(90,885,557)"/><rect x="840" y="575" width="10" height="7" fill="none" stroke="#000000" transform="rotate(90,885,557)"/><rect x="920" y="532" width="10" height="7" fill="none" stroke="#000000" transform="rotate(90,885,557)"/><rect x="920" y="575" width="10" height="7" fill="none" stroke="#000000" transform="rotate(90,885,557)"/><a xlink:href="mailto:yordan.dyakov@mentormate.com"><rect x="846" y="538" width="80" height="40" fill="none" stroke="none" transform="rotate(-90,886,558)"/><g fill="#0000EE" font-family="Helvetica" text-decoration="underline" text-anchor="middle" font-size="12px" transform="rotate(-90,886,558)"><text x="886" y="555">YORDAN</text><text x="886" y="569">DYAKOV</text></g></a><rect x="996.5" y="443" width="50" height="10" fill="#000000" stroke="#000000" transform="rotate(90,1021.5,448)"/><rect x="927" y="723" width="190" height="10" fill="#000000" stroke="#000000" transform="rotate(90,1022,728)"/><rect x="941" y="1008" width="180" height="10" fill="#000000" stroke="#000000" transform="rotate(90,1031,1013)"/><rect x="100" y="858" width="220" height="10" fill="#000000" stroke="#000000" transform="rotate(90,210,863)"/><rect x="185" y="1107" width="50" height="10" fill="#000000" stroke="#000000" transform="rotate(90,210,1112)"/><rect x="-254" y="498" width="520" height="10" fill="#000000" stroke="#000000" transform="rotate(90,6,503)"/><rect x="280" y="263" width="230" height="10" fill="#000000" stroke="#000000" transform="rotate(90,395,268)"/><rect x="446" y="208" width="120" height="10" fill="#000000" stroke="#000000" transform="rotate(90,506,213)"/><rect x="637" y="41" width="88" height="10" fill="#000000" stroke="#000000" transform="rotate(180,681,46)"/><rect x="502" y="264" width="140" height="10" fill="#000000" stroke="#000000" transform="rotate(180,572,269)"/><rect x="933" y="782" width="88" height="10" fill="#000000" stroke="#000000" stroke-width="13" transform="rotate(180,977,787)"/><rect x="397.5" y="153.5" width="103" height="10" fill="#000000" stroke="#000000" transform="rotate(180,449,158.5)"/><rect x="11.5" y="378.5" width="205" height="10" fill="#000000" stroke="#000000" transform="rotate(180,114,383.5)"/><rect x="285.5" y="379.5" width="115" height="10" fill="#000000" stroke="#000000" transform="rotate(180,343,384.5)"/><rect x="2.5" y="242.5" width="397" height="10" fill="#000000" stroke="#000000" transform="rotate(180,201,247.5)"/><rect x="992.5" y="1094.5" width="43" height="10" fill="#000000" stroke="#000000" transform="rotate(180,1014,1099.5)"/><rect x="211" y="1127" width="518" height="10" fill="#000000" stroke="#000000" transform="rotate(180,470,1132)"/><rect x="830" y="42" width="194" height="10" fill="#000000" stroke="#000000" transform="rotate(180,927,47)"/><path d="M 11 758 L 211 758" fill="none" stroke="#000000" stroke-width="5" stroke-miterlimit="10"/><path d="M 283 658 L 641 658" fill="none" stroke="#000000" stroke-width="5" stroke-miterlimit="10"/><path d="M 211 658 L 219 658" fill="none" stroke="#000000" stroke-width="5" stroke-miterlimit="10"/><path d="M 934 334 L 1111 334" fill="none" stroke="#000000" stroke-width="5" stroke-miterlimit="10" transform="rotate(90,1022.5,334)"/><path d="M 53 534 L 361 534" fill="none" stroke="#000000" stroke-width="5" stroke-miterlimit="10" transform="rotate(90,207,534)"/><path d="M 623 573 L 651 573" fill="none" stroke="#000000" stroke-width="5" stroke-miterlimit="10" transform="rotate(90,637,573)"/><path d="M 145 1032 L 272 1032" fill="none" stroke="#000000" stroke-width="5" stroke-miterlimit="10" transform="rotate(90,208.5,1032)"/><path d="M 935 561 L 1111 561" fill="none" stroke="#000000" stroke-width="5" stroke-miterlimit="10" transform="rotate(90,1023,561)"/><path d="M 921 1150 L 1038 1150" fill="none" stroke="#000000" stroke-width="5" stroke-miterlimit="10" transform="rotate(105,979.5,1150)"/><path d="M 991 890 L 1108 890" fill="none" stroke="#000000" stroke-width="5" stroke-miterlimit="10" transform="rotate(105,1049.5,890)"/><path d="M 724 1167 L 972 1167" fill="none" stroke="#000000" stroke-width="5" stroke-miterlimit="10" transform="rotate(197,848,1167)"/><path d="M 1027 827 L 1069 827" fill="none" stroke="#000000" stroke-width="5" stroke-miterlimit="10" transform="rotate(197,1048,827)"/><rect x="328.5" y="780.5" width="78" height="47" fill="#000000" stroke="#000000" stroke-width="13" transform="rotate(90,367.5,804)"/><rect x="579" y="781" width="76" height="48" fill="#000000" stroke="#000000" stroke-width="13" transform="rotate(90,617,805)"/><ellipse cx="934" cy="664" rx="19" ry="19.5" fill="#000000" stroke="#000000" stroke-width="13"/><ellipse cx="870" cy="449" rx="19" ry="19.5" fill="#000000" stroke="#000000" stroke-width="13"/><rect x="846" y="228" width="65" height="30" rx="4.5" ry="4.5" fill="#000000" stroke="#000000"/></g></svg>