<svg xmlns="http://www.w3.org/2000/svg" xmlns:xlink="http://www.w3.org/1999/xlink" width="779px" height="803px" version="1.1"><defs/><g transform="translate(0.5,0.5)"><path d="M 426 801 L 426 1 L 776 1 L 776 11 L 436 11 L 436 801 Z" fill="#000000" stroke="#000000" stroke-miterlimit="10" transform="rotate(180,601,401)" pointer-events="none"/><rect x="-214" y="288.5" width="599" height="10" fill="#000000" stroke="#000000" transform="rotate(-75,85.5,293.5)" pointer-events="none"/><rect x="159" y="1" width="617" height="10" fill="#000000" stroke="#000000" pointer-events="none"/><path d="M 106 901 L 106 481 L 326 481 L 326 491 L 116 491 L 116 901 Z" fill="#000000" stroke="#000000" stroke-miterlimit="10" transform="rotate(90,216,691)" pointer-events="none"/><rect x="485" y="686" width="220" height="10" fill="#000000" stroke="#000000" transform="rotate(90,595,691)" pointer-events="none"/><rect x="426" y="581" width="340" height="10" fill="#000000" stroke="#000000" pointer-events="none"/><rect x="486" y="516" width="59" height="5" fill="#ffffff" stroke="#000000" transform="rotate(90,515.5,553.5)" pointer-events="none"/><path d="M 486 521 C 486 553.58 512.42 580 545 580 L 545 521" fill="none" stroke="#000000" stroke-miterlimit="10" transform="rotate(90,515.5,553.5)" pointer-events="none"/><rect x="404" y="532" width="80" height="40" fill="none" stroke="none" pointer-events="none"/><g fill="#000000" font-family="Helvetica" text-anchor="middle" font-size="12px"><text x="444" y="556">MAIN ENTRANCE</text></g><rect x="315" y="592" width="100" height="100" fill="#ffffff" stroke="#000000" pointer-events="none"/><path d="M 315 592 L 415 692 M 415 592 L 315 692" fill="none" stroke="#000000" stroke-miterlimit="10" pointer-events="none"/><rect x="325" y="694" width="80" height="40" fill="none" stroke="none" pointer-events="none"/><g fill="#000000" font-family="Helvetica" text-anchor="middle" font-size="12px"><text x="365" y="718">ELEVATOR</text></g><rect x="581" y="176" width="90" height="50" fill="#ffffff" stroke="#000000" transform="rotate(90,626,201)" pointer-events="none"/><rect x="581" y="176" width="10" height="7" fill="none" stroke="#000000" transform="rotate(90,626,201)" pointer-events="none"/><rect x="581" y="219" width="10" height="7" fill="none" stroke="#000000" transform="rotate(90,626,201)" pointer-events="none"/><rect x="661" y="176" width="10" height="7" fill="none" stroke="#000000" transform="rotate(90,626,201)" pointer-events="none"/><rect x="661" y="219" width="10" height="7" fill="none" stroke="#000000" transform="rotate(90,626,201)" pointer-events="none"/><rect x="636" y="176" width="90" height="50" fill="#ffffff" stroke="#000000" transform="rotate(90,681,201)" pointer-events="none"/><rect x="636" y="176" width="10" height="7" fill="none" stroke="#000000" transform="rotate(90,681,201)" pointer-events="none"/><rect x="636" y="219" width="10" height="7" fill="none" stroke="#000000" transform="rotate(90,681,201)" pointer-events="none"/><rect x="716" y="176" width="10" height="7" fill="none" stroke="#000000" transform="rotate(90,681,201)" pointer-events="none"/><rect x="716" y="219" width="10" height="7" fill="none" stroke="#000000" transform="rotate(90,681,201)" pointer-events="none"/><rect x="581" y="272" width="90" height="50" fill="#ffffff" stroke="#000000" transform="rotate(90,626,297)" pointer-events="none"/><rect x="581" y="272" width="10" height="7" fill="none" stroke="#000000" transform="rotate(90,626,297)" pointer-events="none"/><rect x="581" y="315" width="10" height="7" fill="none" stroke="#000000" transform="rotate(90,626,297)" pointer-events="none"/><rect x="661" y="272" width="10" height="7" fill="none" stroke="#000000" transform="rotate(90,626,297)" pointer-events="none"/><rect x="661" y="315" width="10" height="7" fill="none" stroke="#000000" transform="rotate(90,626,297)" pointer-events="none"/><rect x="636" y="272" width="90" height="50" fill="#ffffff" stroke="#000000" transform="rotate(90,681,297)" pointer-events="none"/><rect x="636" y="272" width="10" height="7" fill="none" stroke="#000000" transform="rotate(90,681,297)" pointer-events="none"/><rect x="636" y="315" width="10" height="7" fill="none" stroke="#000000" transform="rotate(90,681,297)" pointer-events="none"/><rect x="716" y="272" width="10" height="7" fill="none" stroke="#000000" transform="rotate(90,681,297)" pointer-events="none"/><rect x="716" y="315" width="10" height="7" fill="none" stroke="#000000" transform="rotate(90,681,297)" pointer-events="none"/><rect x="581" y="379" width="90" height="50" fill="#ffffff" stroke="#000000" transform="rotate(90,626,404)" pointer-events="none"/><rect x="581" y="379" width="10" height="7" fill="none" stroke="#000000" transform="rotate(90,626,404)" pointer-events="none"/><rect x="581" y="422" width="10" height="7" fill="none" stroke="#000000" transform="rotate(90,626,404)" pointer-events="none"/><rect x="661" y="379" width="10" height="7" fill="none" stroke="#000000" transform="rotate(90,626,404)" pointer-events="none"/><rect x="661" y="422" width="10" height="7" fill="none" stroke="#000000" transform="rotate(90,626,404)" pointer-events="none"/><rect x="636" y="379" width="90" height="50" fill="#ffffff" stroke="#000000" transform="rotate(90,681,404)" pointer-events="none"/><rect x="636" y="379" width="10" height="7" fill="none" stroke="#000000" transform="rotate(90,681,404)" pointer-events="none"/><rect x="636" y="422" width="10" height="7" fill="none" stroke="#000000" transform="rotate(90,681,404)" pointer-events="none"/><rect x="716" y="379" width="10" height="7" fill="none" stroke="#000000" transform="rotate(90,681,404)" pointer-events="none"/><rect x="716" y="422" width="10" height="7" fill="none" stroke="#000000" transform="rotate(90,681,404)" pointer-events="none"/><rect x="249" y="388" width="90" height="50" fill="#ffffff" stroke="#000000" pointer-events="none"/><rect x="249" y="388" width="10" height="7" fill="none" stroke="#000000" pointer-events="none"/><rect x="249" y="431" width="10" height="7" fill="none" stroke="#000000" pointer-events="none"/><rect x="329" y="388" width="10" height="7" fill="none" stroke="#000000" pointer-events="none"/><rect x="329" y="431" width="10" height="7" fill="none" stroke="#000000" pointer-events="none"/><rect x="249" y="447" width="90" height="50" fill="#ffffff" stroke="#000000" pointer-events="none"/><rect x="249" y="447" width="10" height="7" fill="none" stroke="#000000" pointer-events="none"/><rect x="249" y="490" width="10" height="7" fill="none" stroke="#000000" pointer-events="none"/><rect x="329" y="447" width="10" height="7" fill="none" stroke="#000000" pointer-events="none"/><rect x="329" y="490" width="10" height="7" fill="none" stroke="#000000" pointer-events="none"/><rect x="348" y="388" width="90" height="50" fill="#ffffff" stroke="#000000" pointer-events="none"/><rect x="348" y="388" width="10" height="7" fill="none" stroke="#000000" pointer-events="none"/><rect x="348" y="431" width="10" height="7" fill="none" stroke="#000000" pointer-events="none"/><rect x="428" y="388" width="10" height="7" fill="none" stroke="#000000" pointer-events="none"/><rect x="428" y="431" width="10" height="7" fill="none" stroke="#000000" pointer-events="none"/><rect x="348" y="447" width="90" height="50" fill="#ffffff" stroke="#000000" pointer-events="none"/><rect x="348" y="447" width="10" height="7" fill="none" stroke="#000000" pointer-events="none"/><rect x="348" y="490" width="10" height="7" fill="none" stroke="#000000" pointer-events="none"/><rect x="428" y="447" width="10" height="7" fill="none" stroke="#000000" pointer-events="none"/><rect x="428" y="490" width="10" height="7" fill="none" stroke="#000000" pointer-events="none"/><rect x="169" y="418" width="90" height="50" fill="#ffffff" stroke="#000000" transform="rotate(90,214,443)" pointer-events="none"/><rect x="169" y="418" width="10" height="7" fill="none" stroke="#000000" transform="rotate(90,214,443)" pointer-events="none"/><rect x="169" y="461" width="10" height="7" fill="none" stroke="#000000" transform="rotate(90,214,443)" pointer-events="none"/><rect x="249" y="418" width="10" height="7" fill="none" stroke="#000000" transform="rotate(90,214,443)" pointer-events="none"/><rect x="249" y="461" width="10" height="7" fill="none" stroke="#000000" transform="rotate(90,214,443)" pointer-events="none"/><rect x="426" y="428" width="90" height="50" fill="#ffffff" stroke="#000000" transform="rotate(90,471,453)" pointer-events="none"/><rect x="426" y="428" width="10" height="7" fill="none" stroke="#000000" transform="rotate(90,471,453)" pointer-events="none"/><rect x="426" y="471" width="10" height="7" fill="none" stroke="#000000" transform="rotate(90,471,453)" pointer-events="none"/><rect x="506" y="428" width="10" height="7" fill="none" stroke="#000000" transform="rotate(90,471,453)" pointer-events="none"/><rect x="506" y="471" width="10" height="7" fill="none" stroke="#000000" transform="rotate(90,471,453)" pointer-events="none"/><rect x="358" y="160" width="90" height="50" fill="#ffffff" stroke="#000000" pointer-events="none"/><rect x="358" y="160" width="10" height="7" fill="none" stroke="#000000" pointer-events="none"/><rect x="358" y="203" width="10" height="7" fill="none" stroke="#000000" pointer-events="none"/><rect x="438" y="160" width="10" height="7" fill="none" stroke="#000000" pointer-events="none"/><rect x="438" y="203" width="10" height="7" fill="none" stroke="#000000" pointer-events="none"/><rect x="261" y="160" width="90" height="50" fill="#ffffff" stroke="#000000" pointer-events="none"/><rect x="261" y="160" width="10" height="7" fill="none" stroke="#000000" pointer-events="none"/><rect x="261" y="203" width="10" height="7" fill="none" stroke="#000000" pointer-events="none"/><rect x="341" y="160" width="10" height="7" fill="none" stroke="#000000" pointer-events="none"/><rect x="341" y="203" width="10" height="7" fill="none" stroke="#000000" pointer-events="none"/><rect x="358" y="101" width="90" height="50" fill="#ffffff" stroke="#000000" pointer-events="none"/><rect x="358" y="101" width="10" height="7" fill="none" stroke="#000000" pointer-events="none"/><rect x="358" y="144" width="10" height="7" fill="none" stroke="#000000" pointer-events="none"/><rect x="438" y="101" width="10" height="7" fill="none" stroke="#000000" pointer-events="none"/><rect x="438" y="144" width="10" height="7" fill="none" stroke="#000000" pointer-events="none"/><rect x="93" y="196" width="90" height="50" fill="#ffffff" stroke="#000000" transform="rotate(105,138,221)" pointer-events="none"/><rect x="93" y="196" width="10" height="7" fill="none" stroke="#000000" transform="rotate(105,138,221)" pointer-events="none"/><rect x="93" y="239" width="10" height="7" fill="none" stroke="#000000" transform="rotate(105,138,221)" pointer-events="none"/><rect x="173" y="196" width="10" height="7" fill="none" stroke="#000000" transform="rotate(105,138,221)" pointer-events="none"/><rect x="173" y="239" width="10" height="7" fill="none" stroke="#000000" transform="rotate(105,138,221)" pointer-events="none"/><path d="M 146 87 L 146 2 L 506 2 L 506 12 L 156 12 L 156 87 Z" fill="#000000" stroke="#000000" stroke-miterlimit="10" transform="rotate(180,326,44.5)" pointer-events="none"/><rect x="189" y="32" width="43" height="5" fill="#ffffff" stroke="#000000" transform="rotate(-90,210.5,55.5)" pointer-events="none"/><path d="M 232 37 C 232 60.75 212.75 80 189 80 L 189 37" fill="none" stroke="#000000" stroke-miterlimit="10" transform="rotate(-90,210.5,55.5)" pointer-events="none"/><rect x="285" y="24.5" width="80" height="40" fill="none" stroke="none" pointer-events="none"/><g fill="#000000" font-family="Helvetica" text-anchor="middle" font-size="36px"><text x="325" y="60.5">WC</text></g><rect x="452" y="160" width="38" height="35" fill="#ffffff" stroke="#000000" pointer-events="none"/><path d="M 452 160 L 490 195 M 490 160 L 452 195" fill="none" stroke="#000000" stroke-miterlimit="10" pointer-events="none"/><rect x="443" y="366" width="38" height="35" fill="#ffffff" stroke="#000000" pointer-events="none"/><path d="M 443 366 L 481 401 M 481 366 L 443 401" fill="none" stroke="#000000" stroke-miterlimit="10" pointer-events="none"/><rect x="496" y="78" width="100" height="10" fill="#000000" stroke="#000000" pointer-events="none"/><rect x="520" y="24.5" width="80" height="40" fill="none" stroke="none" pointer-events="none"/><g fill="#000000" font-family="Helvetica" text-anchor="middle" font-size="12px"><text x="560" y="48.5">KITCHEN</text></g><rect x="724" y="42.5" width="40" height="40" rx="3" ry="3" fill="#ffffff" stroke="#000000" pointer-events="none"/><ellipse cx="744" cy="63" rx="18" ry="18" fill="#eeeeee" stroke="#000000" pointer-events="none"/><ellipse cx="744" cy="63" rx="3" ry="3" fill="transparent" stroke="#000000" pointer-events="none"/><rect x="612" y="18" width="42" height="5" fill="#ffffff" stroke="#000000" transform="rotate(90,633,32)" pointer-events="none"/><path d="M 654 23 C 654 46.2 635.2 65 612 65 L 612 23" fill="none" stroke="#000000" stroke-miterlimit="10" transform="rotate(90,633,32)" pointer-events="none"/><path d="M 631.71 87 L 631.71 70.06 L 626 70.06 L 636 59 L 646 70.06 L 640.29 70.06 L 640.29 87 Z" fill="#ffffff" stroke="#000000" stroke-width="2" stroke-miterlimit="10" pointer-events="none"/><rect x="595" y="80" width="80" height="40" fill="none" stroke="none" pointer-events="none"/><g fill="#000000" font-family="Helvetica" text-anchor="middle" font-size="12px"><text x="635" y="104">TERRACE</text></g><a xlink:href="mailto:blagovest.petrov@mentormate.com"><rect x="363" y="106" width="80" height="40" fill="none" stroke="none"/><g fill="#0000EE" font-family="Helvetica" text-decoration="underline" text-anchor="middle" font-size="12px"><text x="403" y="123">BLAGOVEST</text><text x="403" y="137">PETROV</text></g></a><a xlink:href="mailto:nikolay.mankov@mentormate.com"><rect x="363" y="165" width="80" height="40" fill="none" stroke="none"/><g fill="#0000EE" font-family="Helvetica" text-decoration="underline" text-anchor="middle" font-size="12px"><text x="403" y="182">NIKOLAY</text><text x="403" y="196">MANKOV</text></g></a><a xlink:href="mailto:simeon.dimov@mentormate.com"><rect x="266" y="165" width="80" height="40" fill="none" stroke="none"/><g fill="#0000EE" font-family="Helvetica" text-decoration="underline" text-anchor="middle" font-size="12px"><text x="306" y="182">SIMEON</text><text x="306" y="196">DIMOV</text></g></a><a xlink:href="mailto:dilyana.totseva@mentormate.com"><rect x="254" y="393" width="80" height="40" fill="none" stroke="none"/><g fill="#0000EE" font-family="Helvetica" text-decoration="underline" text-anchor="middle" font-size="12px"><text x="294" y="410">DILYANA</text><text x="294" y="424">TOTSEVA</text></g></a><a xlink:href="mailto:kalin.venkov@mentormate.com"><rect x="353" y="393" width="80" height="40" fill="none" stroke="none"/><g fill="#0000EE" font-family="Helvetica" text-decoration="underline" text-anchor="middle" font-size="12px"><text x="393" y="410">KALIN </text><text x="393" y="424">VENKOV</text></g></a><a xlink:href="mailto:vladimir.mindov@mentormate.com"><rect x="254" y="452" width="80" height="40" fill="none" stroke="none"/><g fill="#0000EE" font-family="Helvetica" text-decoration="underline" text-anchor="middle" font-size="12px"><text x="294" y="469">VLADIMIR</text><text x="294" y="483"> MINDOV</text></g></a><a xlink:href="mailto:mariela.donkova@mentormate.com"><rect x="353" y="452" width="80" height="40" fill="none" stroke="none"/><g fill="#0000EE" font-family="Helvetica" text-decoration="underline" text-anchor="middle" font-size="12px"><text x="393" y="469">MARIELA</text><text x="393" y="483">DONKOVA</text></g></a><a xlink:href="mailto:georgi.ivanov@mentormate.com"><rect x="174" y="423" width="80" height="40" fill="none" stroke="none" transform="rotate(-90,214,443)"/><g fill="#0000EE" font-family="Helvetica" text-decoration="underline" text-anchor="middle" font-size="12px" transform="rotate(-90,214,443)"><text x="214" y="440">GEORGI</text><text x="214" y="454">IVANOV</text></g></a><a xlink:href="mailto:yordanka.tanova@mentormate.com"><rect x="583" y="381" width="84" height="42" fill="none" stroke="none" transform="rotate(-90,625,402)"/><g fill="#0000EE" font-family="Helvetica" text-decoration="underline" text-anchor="middle" font-size="12px" transform="rotate(-90,625,402)"><text x="625" y="399">YORDANKA </text><text x="625" y="413">TANOVA</text></g></a><a xlink:href="mailto:stanislava.baleva@mentormate.com"><rect x="641" y="384" width="80" height="40" fill="none" stroke="none" transform="rotate(-90,681,404)"/><g fill="#0000EE" font-family="Helvetica" text-decoration="underline" text-anchor="middle" font-size="12px" transform="rotate(-90,681,404)"><text x="681" y="401">STANISLAVA</text><text x="681" y="415">BALEVA</text></g></a><a xlink:href="mailto:bogomila.ivanova@mentormate.com"><rect x="586" y="277" width="80" height="40" fill="none" stroke="none" transform="rotate(-90,626,297)"/><g fill="#0000EE" font-family="Helvetica" text-decoration="underline" text-anchor="middle" font-size="12px" transform="rotate(-90,626,297)"><text x="626" y="294">BOGOMILA</text><text x="626" y="308">IVANOVA</text></g></a><a xlink:href="mailto:boris.arabov@mentormate.com"><rect x="641" y="277" width="80" height="40" fill="none" stroke="none" transform="rotate(-90,681,297)"/><g fill="#0000EE" font-family="Helvetica" text-decoration="underline" text-anchor="middle" font-size="12px" transform="rotate(-90,681,297)"><text x="681" y="294">BORIS</text><text x="681" y="308">ARABOV</text></g></a><a xlink:href="mailto:dimitar.marinov@mentormate.com"><rect x="586" y="181" width="80" height="40" fill="none" stroke="none" transform="rotate(-90,626,201)"/><g fill="#0000EE" font-family="Helvetica" text-decoration="underline" text-anchor="middle" font-size="12px" transform="rotate(-90,626,201)"><text x="626" y="198">DIMITAR</text><text x="626" y="212">MARINOV</text></g></a><a xlink:href="mailto:kristiyana.zapryanova@mentormate.com"><rect x="641" y="181" width="80" height="40" fill="none" stroke="none" transform="rotate(-90,681,201)"/><g fill="#0000EE" font-family="Helvetica" text-decoration="underline" text-anchor="middle" font-size="12px" transform="rotate(-90,681,201)"><text x="681" y="198">KRISTIYANA</text><text x="681" y="212">ZAPRYANOVA</text></g></a><path d="M 286 205 L 286 205" fill="none" stroke="#000000" stroke-miterlimit="10"/><path d="M 701 201 L 701 201" fill="none" stroke="#000000" stroke-miterlimit="10"/><path d="M 646 317 L 646 317" fill="none" stroke="#000000" stroke-miterlimit="10"/><rect x="47" y="522" width="90" height="50" fill="#ffffff" stroke="#000000" transform="rotate(-180,92,547)"/><rect x="47" y="522" width="10" height="7" fill="none" stroke="#000000" transform="rotate(-180,92,547)"/><rect x="47" y="565" width="10" height="7" fill="none" stroke="#000000" transform="rotate(-180,92,547)"/><rect x="127" y="522" width="10" height="7" fill="none" stroke="#000000" transform="rotate(-180,92,547)"/><rect x="127" y="565" width="10" height="7" fill="none" stroke="#000000" transform="rotate(-180,92,547)"/><rect x="50" y="526" width="84" height="42" fill="none" stroke="none"/><g fill="#000000" font-family="Helvetica" text-anchor="middle" font-size="12px"><text x="92" y="544">iMAC</text><text x="92" y="558">EMPTY</text></g><a xlink:href="mailto:milen.halachev@mwntormate.com"><rect x="110" y="201" width="59" height="38" fill="none" stroke="none" transform="rotate(-75,139.5,220)"/><g fill="#0000EE" font-family="Helvetica" text-decoration="underline" text-anchor="middle" font-size="12px" transform="rotate(-75,139.5,220)"><text x="139.5" y="210">MILEN </text><text x="139.5" y="224">HALACHEV</text></g></a><rect x="429" y="433" width="84" height="42" fill="none" stroke="none" transform="rotate(-90,471,454)"/><g fill="#000000" font-family="Helvetica" text-anchor="middle" font-size="12px" transform="rotate(-90,471,454)"><text x="471" y="458">EMPTY</text></g></g></svg>